<svg width="40" height="40" viewBox="0 0 40 40" fill="none" xmlns="http://www.w3.org/2000/svg">
<path d="M32.2286 24.4458C30.9675 24.4461 29.7255 24.7532 28.6097 25.3406C27.4938 25.928 26.5376 26.778 25.8236 27.8174L14.9902 22.9258C15.7499 21.0601 15.7559 18.9724 15.0069 17.1024L25.8302 12.1874C26.8856 13.7187 28.455 14.8209 30.2535 15.2941C32.052 15.7673 33.9606 15.5802 35.6329 14.7667C37.3053 13.9532 38.6307 12.5672 39.3686 10.8601C40.1065 9.15307 40.2082 7.23805 39.655 5.46248C39.1019 3.68692 37.9306 2.16844 36.3537 1.18252C34.7768 0.196599 32.8988 -0.19144 31.0603 0.0887962C29.2218 0.369033 27.5447 1.29898 26.3331 2.70993C25.1216 4.12088 24.4559 5.91936 24.4569 7.77909C24.4569 8.22145 24.4942 8.66302 24.5686 9.09909L13.0836 14.3124C11.9764 13.2798 10.5919 12.5928 9.09993 12.3355C7.60796 12.0783 6.07334 12.262 4.68429 12.8643C3.29524 13.4665 2.11213 14.461 1.28005 15.7258C0.44798 16.9907 0.00311555 18.4708 1.63046e-05 19.9848C-0.00308294 21.4988 0.435718 22.9808 1.26261 24.249C2.08949 25.5172 3.26852 26.5166 4.6551 27.1245C6.04168 27.7324 7.57552 27.9225 9.06853 27.6713C10.5615 27.4202 11.9488 26.7388 13.0602 25.7108L24.5602 30.9058C24.2899 32.4775 24.5093 34.0944 25.1886 35.5373C25.8679 36.9802 26.9744 38.1794 28.358 38.9725C29.7417 39.7656 31.3357 40.1142 32.9241 39.971C34.5125 39.8279 36.0185 39.2 37.2381 38.1723C38.4577 37.1447 39.3319 35.767 39.7424 34.2259C40.1528 32.6848 40.0796 31.0548 39.5327 29.5566C38.9858 28.0585 37.9916 26.7647 36.6848 25.8505C35.3779 24.9363 33.8234 24.4459 32.2286 24.4458Z" fill="black"/>
</svg>
