<svg width="40" height="40" viewBox="0 0 40 40" fill="none" xmlns="http://www.w3.org/2000/svg">
<g clip-path="url(#clip0_1_26)">
<path d="M38.3333 18.3333C37.8913 18.3333 37.4674 18.1577 37.1548 17.8452C36.8423 17.5326 36.6667 17.1087 36.6667 16.6667C36.6631 13.1315 35.2572 9.7422 32.7575 7.24248C30.2578 4.74276 26.8685 3.33687 23.3333 3.33334C22.8913 3.33334 22.4674 3.15774 22.1548 2.84518C21.8423 2.53262 21.6667 2.1087 21.6667 1.66667C21.6667 1.22464 21.8423 0.800719 22.1548 0.488159C22.4674 0.175598 22.8913 3.08827e-06 23.3333 3.08827e-06C27.7521 0.00485575 31.9885 1.76236 35.1131 4.88692C38.2376 8.01147 39.9952 12.2479 40 16.6667C40 17.1087 39.8244 17.5326 39.5118 17.8452C39.1993 18.1577 38.7754 18.3333 38.3333 18.3333ZM33.3333 16.6667C33.3333 14.0145 32.2798 11.471 30.4044 9.5956C28.529 7.72024 25.9855 6.66667 23.3333 6.66667C22.8913 6.66667 22.4674 6.84227 22.1548 7.15483C21.8423 7.46739 21.6667 7.89131 21.6667 8.33334C21.6667 8.77536 21.8423 9.19929 22.1548 9.51185C22.4674 9.82441 22.8913 10 23.3333 10C25.1014 10 26.7971 10.7024 28.0474 11.9526C29.2976 13.2029 30 14.8986 30 16.6667C30 17.1087 30.1756 17.5326 30.4882 17.8452C30.8007 18.1577 31.2246 18.3333 31.6667 18.3333C32.1087 18.3333 32.5326 18.1577 32.8452 17.8452C33.1577 17.5326 33.3333 17.1087 33.3333 16.6667ZM36.9717 36.94L38.4883 35.1917C39.4537 34.2232 39.9957 32.9116 39.9957 31.5442C39.9957 30.1768 39.4537 28.8651 38.4883 27.8967C38.4367 27.845 34.4267 24.76 34.4267 24.76C33.4643 23.8439 32.1859 23.3338 30.8572 23.3356C29.5284 23.3375 28.2515 23.8512 27.2917 24.77L24.115 27.4467C21.522 26.3735 19.1665 24.7986 17.1838 22.8125C15.2011 20.8264 13.6304 18.4682 12.5617 15.8733L15.2283 12.7067C16.1479 11.747 16.6622 10.4698 16.6643 9.14067C16.6665 7.81155 16.1564 6.53272 15.24 5.57C15.24 5.57 12.1517 1.565 12.1 1.51334C11.1491 0.55625 9.85981 0.0117064 8.51072 -0.00263894C7.16163 -0.0169843 5.86105 0.50002 4.89 1.43667L2.97334 3.10334C-8.35 16.24 16.0333 40.435 29.6033 40C30.9736 40.0079 32.3316 39.7413 33.5972 39.2157C34.8627 38.6901 36.0101 37.9163 36.9717 36.94Z" fill="black"/>
</g>
<defs>
<clipPath id="clip0_1_26">
<rect width="40" height="40" fill="white"/>
</clipPath>
</defs>
</svg>
