<svg width="64" height="64" viewBox="0 0 64 64" fill="none" xmlns="http://www.w3.org/2000/svg">
<g clip-path="url(#clip0_1_7)">
<path d="M59.9599 29.2667L31.9999 46.0453L4.03992 29.2667C3.43346 28.9028 2.70728 28.7947 2.02115 28.9663C1.33502 29.1378 0.745128 29.5749 0.381251 30.1813C0.0173737 30.7878 -0.0906839 31.514 0.0808494 32.2001C0.252383 32.8862 0.689456 33.4761 1.29592 33.84L30.6293 51.44C31.044 51.6892 31.5187 51.8208 32.0026 51.8208C32.4864 51.8208 32.9612 51.6892 33.3759 51.44L62.7093 33.84C63.3157 33.4761 63.7528 32.8862 63.9243 32.2001C64.0959 31.514 63.9878 30.7878 63.6239 30.1813C63.26 29.5749 62.6702 29.1378 61.984 28.9663C61.2979 28.7947 60.5717 28.9028 59.9653 29.2667H59.9599Z" fill="black"/>
<path d="M59.96 41.448L32 58.224L4.03997 41.448C3.73968 41.2678 3.40684 41.1486 3.06046 41.097C2.71408 41.0455 2.36094 41.0627 2.0212 41.1476C1.68146 41.2325 1.36178 41.3835 1.08041 41.592C0.799033 41.8005 0.561477 42.0624 0.381304 42.3627C0.20113 42.6629 0.0818672 42.9958 0.0303243 43.3422C-0.0212187 43.6885 -0.00403219 44.0417 0.0809025 44.3814C0.252436 45.0676 0.689509 45.6574 1.29597 46.0213L30.6293 63.6213C31.0441 63.8705 31.5188 64.0022 32.0026 64.0022C32.4865 64.0022 32.9612 63.8705 33.376 63.6213L62.7093 46.0213C63.3158 45.6574 63.7528 45.0676 63.9244 44.3814C64.0959 43.6953 63.9878 42.9691 63.624 42.3627C63.2601 41.7562 62.6702 41.3191 61.9841 41.1476C61.2979 40.9761 60.5718 41.0841 59.9653 41.448H59.96Z" fill="black"/>
<path d="M1.29328 22.2853L27.9173 38.2613C29.15 39.0029 30.5614 39.3947 32 39.3947C33.4385 39.3947 34.8499 39.0029 36.0826 38.2613L62.7066 22.2853C63.1009 22.0483 63.4271 21.7132 63.6536 21.3128C63.8801 20.9123 63.9991 20.4601 63.9991 20C63.9991 19.5399 63.8801 19.0877 63.6536 18.6873C63.4271 18.2868 63.1009 17.9518 62.7066 17.7147L36.0826 1.73867C34.8496 0.99795 33.4383 0.606628 32 0.606628C30.5616 0.606628 29.1503 0.99795 27.9173 1.73867L1.29328 17.7147C0.89901 17.9518 0.572779 18.2868 0.346298 18.6873C0.119818 19.0877 0.000793457 19.5399 0.000793457 20C0.000793457 20.4601 0.119818 20.9123 0.346298 21.3128C0.572779 21.7132 0.89901 22.0483 1.29328 22.2853Z" fill="black"/>
</g>
<defs>
<clipPath id="clip0_1_7">
<rect width="64" height="64" fill="white"/>
</clipPath>
</defs>
</svg>
